<?xml version="1.0" encoding="utf-8"?>
<!-- Generator: Adobe Illustrator 19.2.1, SVG Export Plug-In . SVG Version: 6.00 Build 0)  -->
<svg version="1.1" id="Calque_1" xmlns="http://www.w3.org/2000/svg" xmlns:xlink="http://www.w3.org/1999/xlink" x="0px" y="0px"
	 viewBox="0 0 200 250" style="enable-background:new 0 0 200 250;" xml:space="preserve">
<style type="text/css">
	.st0{fill:#D01325;}
</style>
<g>
	<g id="acid">
		<path id="D" class="st0" d="M170.6,249.7h-37.1v-56.6l39.5,39.5c3.3,3.3,7.4,8.1,5.5,12.7C176.8,249.6,171.2,249.7,170.6,249.7
			L170.6,249.7L170.6,249.7z M140.3,242.8H169c1.7,0,2.7-1.8-0.8-5.4l-27.8-27.8L140.3,242.8L140.3,242.8z"/>
		<polygon id="I" class="st0" points="122.3,197.9 122.3,204.8 122.3,242.8 122.3,249.7 129.1,249.7 129.1,242.8 129.1,204.8 
			129.1,197.9 		"/>
		<path id="C" class="st0" d="M97.6,249.7c-14.3,0-25.9-11.6-25.9-25.9c0-14.3,11.6-25.9,25.9-25.9c7.4,0,14.5,3.2,19.4,8.8
			l-5.1,4.5c-3.6-4.1-8.8-6.4-14.3-6.4c-10.5,0-19,8.5-19,19c0,10.5,8.6,19,19,19c5.5,0,10.7-2.3,14.3-6.4l5.1,4.5
			C112.1,246.5,105,249.7,97.6,249.7L97.6,249.7L97.6,249.7z"/>
		<path id="A" class="st0" d="M66.9,249.7H10.3l56.6-56.6V249.7z M26.9,242.8h33.2v-33.2L26.9,242.8z"/>
	</g>
	<g id="pointilles">
		
			<rect x="-1.3" y="136.2" transform="matrix(0.7071 -0.7071 0.7071 0.7071 -93.7804 48.1716)" class="st0" width="25.1" height="2.2"/>
		
			<rect x="52.5" y="84.4" transform="matrix(0.7071 -0.7071 0.7071 0.7071 -41.9733 69.6282)" class="st0" width="21.1" height="2.2"/>
		
			<rect x="76.3" y="60.6" transform="matrix(0.7071 -0.7071 0.7071 0.7071 -18.164 79.4952)" class="st0" width="21.1" height="2.2"/>
		
			<rect x="102.3" y="32.6" transform="matrix(0.7071 -0.7071 0.7071 0.7071 9.8015 91.0737)" class="st0" width="25.1" height="2.2"/>
		
			<rect x="126.1" y="8.8" transform="matrix(0.7071 -0.7071 0.7071 0.7071 33.6096 100.9391)" class="st0" width="25.1" height="2.2"/>
		
			<rect x="72.5" y="162.4" transform="matrix(0.7071 -0.7071 0.7071 0.7071 -90.6855 108.024)" class="st0" width="25.1" height="2.2"/>
		
			<rect x="48.7" y="186.2" transform="matrix(0.7071 -0.7071 0.7071 0.7071 -114.5077 98.1894)" class="st0" width="25.1" height="2.2"/>
		
			<rect x="102.5" y="134.4" transform="matrix(0.7071 -0.7071 0.7071 0.7071 -62.7003 119.6469)" class="st0" width="21.1" height="2.2"/>
		
			<rect x="126.3" y="110.6" transform="matrix(0.7071 -0.7071 0.7071 0.7071 -38.8916 129.5136)" class="st0" width="21.1" height="2.2"/>
		
			<rect x="176.1" y="58.8" transform="matrix(0.7071 -0.7071 0.7071 0.7071 12.8836 150.9574)" class="st0" width="25.1" height="2.2"/>
		
			<rect x="60.2" y="-2.7" transform="matrix(0.7071 -0.7071 0.7071 0.7071 10.9664 46.224)" class="st0" width="2.2" height="25.1"/>
		<rect x="84" y="21.1" transform="matrix(0.7071 -0.7071 0.7071 0.7071 1.0996 70.0331)" class="st0" width="2.2" height="25.1"/>
		
			<rect x="112" y="51.1" transform="matrix(0.7071 -0.7071 0.7071 0.7071 -10.5198 98.0207)" class="st0" width="2.2" height="21.1"/>
		
			<rect x="187.5" y="124.7" transform="matrix(0.7072 -0.707 0.707 0.7072 -41.8119 173.5719)" class="st0" width="2.2" height="25.1"/>
		
			<rect x="10.1" y="47.3" transform="matrix(0.7071 -0.7071 0.7071 0.7071 -39.0506 25.4966)" class="st0" width="2.2" height="25.1"/>
		
			<rect x="62" y="101.1" transform="matrix(0.7071 -0.7071 0.7071 0.7071 -60.5065 77.306)" class="st0" width="2.2" height="21.1"/>
		
			<rect x="85.8" y="124.9" transform="matrix(0.7071 -0.7071 0.7071 0.7071 -70.3759 101.1083)" class="st0" width="2.2" height="21.1"/>
		
			<rect x="113.7" y="150.9" transform="matrix(0.707 -0.7072 0.7072 0.707 -81.9535 129.1159)" class="st0" width="2.2" height="25.1"/>
		
			<rect x="137.5" y="174.7" transform="matrix(0.707 -0.7072 0.7072 0.707 -91.8228 152.9245)" class="st0" width="2.2" height="25.1"/>
		
			<rect x="135.8" y="74.9" transform="matrix(0.7071 -0.7071 0.7071 0.7071 -20.3409 121.8119)" class="st0" width="2.2" height="21.1"/>
		<path class="st0" d="M30,80.2l13.2,13.2l1.6-1.6L31.5,78.6 M31.5,118.6l13.2-13.2l-1.6-1.6L29.9,117 M170.1,117.1L170.1,117.1
			l-13.3-13.3l-1.6,1.6l13.3,13.3 M168.4,78.6l-13.2,13.2l1.6,1.5L170,80.1"/>
	</g>
	<g id="oeil">
		<path class="st0" d="M188.8,97.5c-8.9-15.3-21.6-28.1-36.8-37.1c-15.7-9.2-33.7-14.1-52-14.1s-36.3,4.9-52,14.1
			c-15.2,9-27.9,21.8-36.8,37.1l-0.6,1.1l0.6,1.1c8.9,15.3,21.6,28.1,36.8,37.1c15.4,9.1,33,13.9,50.9,14.1c0.3,0,0.7,0,1,0
			c0.3,0,0.7,0,1,0c18-0.2,35.6-5,51-14.1c15.2-9,27.9-21.8,36.8-37.1l0.6-1.1L188.8,97.5z M50.3,133.1c-6.9-4-13.2-8.9-18.8-14.4
			l13.2-13.2l-1.6-1.6L29.9,117c-5.4-5.5-10.2-11.7-14.2-18.4c4-6.7,8.8-12.9,14.2-18.5l13.2,13.2l1.6-1.6L31.5,78.6
			c5.6-5.5,11.9-10.3,18.8-14.4c6.6-3.9,13.5-6.9,20.7-9.2C57,64.4,47.7,80.5,47.7,98.6c0,18.2,9.3,34.2,23.4,43.6
			C63.8,140,56.8,136.9,50.3,133.1L50.3,133.1L50.3,133.1z M100,146.6c-0.4,0-0.8,0-1.2,0c-25.9-0.7-46.7-21.9-46.7-47.9
			s20.8-47.3,46.7-47.9c0.4,0,0.8,0,1.2,0c0.4,0,0.8,0,1.2,0c25.9,0.7,46.7,21.9,46.7,47.9s-20.8,47.3-46.7,47.9
			C100.8,146.6,100.4,146.6,100,146.6z M170.1,117.1l-13.3-13.3l-1.6,1.6l13.3,13.3c-5.6,5.5-11.9,10.4-18.8,14.4
			c-6.5,3.9-13.5,6.9-20.7,9.2c14.1-9.4,23.4-25.4,23.4-43.6c0-18.2-9.3-34.2-23.4-43.6c7.2,2.2,14.2,5.3,20.7,9.2
			c6.8,4,13.1,8.8,18.7,14.3l-13.2,13.2l1.6,1.5L170,80.1c5.5,5.6,10.3,11.8,14.3,18.5C180.3,105.4,175.5,111.6,170.1,117.1
			L170.1,117.1L170.1,117.1z"/>
	</g>
	<g id="pupille">
		<path class="st0" d="M117.4,98.6c0,9.6-7.8,17.4-17.4,17.4c-9.6,0-17.4-7.8-17.4-17.4c0-9.6,7.8-17.4,17.4-17.4
			C109.6,81.2,117.5,89,117.4,98.6L117.4,98.6z"/>
	</g>
</g>
</svg>
