<?xml version="1.0" encoding="utf-8"?>
<!-- Generator: Adobe Illustrator 17.0.0, SVG Export Plug-In . SVG Version: 6.00 Build 0)  -->
<!DOCTYPE svg PUBLIC "-//W3C//DTD SVG 1.1//EN" "http://www.w3.org/Graphics/SVG/1.1/DTD/svg11.dtd">
<svg version="1.1" id="Calque_1" xmlns="http://www.w3.org/2000/svg" xmlns:xlink="http://www.w3.org/1999/xlink" x="0px" y="0px"
	 width="124.89px" height="42.835px" viewBox="23.601 0.224 124.89 42.835" enable-background="new 23.601 0.224 124.89 42.835"
	 xml:space="preserve">
<g>
	<g id="acid">
		<path id="D" fill="#010202" d="M144.57,35.777h-17.268V9.435l18.395,18.395c1.525,1.517,3.455,3.792,2.57,5.92
			c-0.815,1.974-3.394,2.036-3.689,2.027L144.57,35.777L144.57,35.777z M130.493,32.587h13.326c0.78,0,1.268-0.86-0.374-2.503
			l-12.951-12.951L130.493,32.587L130.493,32.587z"/>
		<polygon id="I" fill="#010202" points="122.08,11.686 122.08,14.889 122.08,32.584 122.08,35.786 125.261,35.786 125.261,32.584 
			125.261,14.889 125.261,11.686 		"/>
		<path id="C" fill="#010202" d="M110.611,35.777c-6.641,0-12.046-5.402-12.046-12.042c0-6.641,5.405-12.045,12.046-12.045
			c3.45,0,6.741,1.496,9.037,4.08l-2.39,2.112c-1.685-1.909-4.106-3.001-6.643-3.001c-4.883,0-8.856,3.971-8.856,8.855
			c0,4.888,3.981,8.848,8.848,8.852c2.537,0,4.958-1.093,6.643-3.001l2.39,2.107c-2.286,2.599-5.586,4.095-9.02,4.085
			L110.611,35.777L110.611,35.777z"/>
		<path id="A" fill="#010202" d="M96.346,35.777H70.003L96.346,9.435V35.777z M77.7,32.587h15.455V17.133L77.7,32.587z"/>
	</g>
	<g id="pointilles">
		
			<rect x="25.462" y="27.335" transform="matrix(-0.7071 -0.7071 0.7071 -0.7071 22.6192 69.4999)" fill="#010202" width="0.483" height="5.46"/>
		
			<rect x="36.741" y="16.484" transform="matrix(-0.7071 -0.7071 0.7071 -0.7071 49.8493 58.2195)" fill="#010202" width="0.483" height="4.603"/>
		
			<rect x="41.926" y="11.301" transform="matrix(-0.7071 -0.7071 0.7071 -0.7071 62.3658 53.0376)" fill="#010202" width="0.483" height="4.603"/>
		
			<rect x="48.013" y="4.783" transform="matrix(-0.7071 -0.7071 0.7071 -0.7071 77.0632 46.947)" fill="#010202" width="0.483" height="5.46"/>
		
			<rect x="53.198" y="-0.4" transform="matrix(-0.7071 -0.7071 0.7071 -0.7071 89.5786 41.7648)" fill="#010202" width="0.483" height="5.46"/>
		
			<rect x="41.529" y="33.037" transform="matrix(-0.7071 -0.7071 0.7071 -0.7071 46.0149 90.5951)" fill="#010202" width="0.483" height="5.46"/>
		
			<rect x="36.351" y="38.228" transform="matrix(-0.7071 -0.7071 0.7071 -0.7071 33.5057 95.7938)" fill="#010202" width="0.483" height="5.46"/>
		
			<rect x="47.63" y="27.377" transform="matrix(-0.7071 -0.7071 0.7071 -0.7071 60.7361 84.5137)" fill="#010202" width="0.483" height="4.603"/>
		
			<rect x="52.815" y="22.193" transform="matrix(-0.7071 -0.7071 0.7071 -0.7071 73.2523 79.3319)" fill="#010202" width="0.483" height="4.603"/>
		
			<rect x="64.087" y="10.492" transform="matrix(-0.7071 -0.7071 0.7071 -0.7071 100.4657 68.0585)" fill="#010202" width="0.483" height="5.46"/>
		
			<rect x="33.864" y="2.083" transform="matrix(-0.7071 -0.7071 0.7071 -0.7071 60.8268 29.8447)" fill="#010202" width="5.46" height="0.483"/>
		
			<rect x="39.048" y="7.268" transform="matrix(-0.7071 -0.7071 0.7071 -0.7071 66.0088 42.361)" fill="#010202" width="5.46" height="0.483"/>
		
			<rect x="45.567" y="13.369" transform="matrix(-0.7071 -0.7071 0.7071 -0.7071 72.0923 57.0818)" fill="#010202" width="4.603" height="0.483"/>
		
			<rect x="61.596" y="29.819" transform="matrix(-0.707 -0.7072 0.7072 -0.707 88.5467 96.8061)" fill="#010202" width="5.46" height="0.483"/>
		
			<rect x="22.972" y="12.972" transform="matrix(-0.7071 -0.7071 0.7071 -0.7071 34.5331 40.7308)" fill="#010202" width="5.46" height="0.483"/>
		
			<rect x="34.681" y="24.251" transform="matrix(-0.7071 -0.7071 0.7071 -0.7071 45.8146 67.9614)" fill="#010202" width="4.603" height="0.483"/>
		
			<rect x="39.862" y="29.436" transform="matrix(-0.7071 -0.7071 0.7071 -0.7071 50.9931 80.4763)" fill="#010202" width="4.603" height="0.483"/>
		
			<rect x="45.527" y="35.523" transform="matrix(-0.7072 -0.707 0.707 -0.7072 57.0995 95.1755)" fill="#010202" width="5.46" height="0.483"/>
		
			<rect x="50.709" y="40.708" transform="matrix(-0.7072 -0.707 0.707 -0.7072 62.2796 107.6908)" fill="#010202" width="5.46" height="0.483"/>
		
			<rect x="50.75" y="18.54" transform="matrix(-0.7071 -0.7071 0.7071 -0.7071 77.2846 69.5746)" fill="#010202" width="4.603" height="0.483"/>
		<path d="M29.779,17.626l2.868,2.868l0.339-0.34l-2.867-2.867 M30.105,25.999l2.881-2.881l-0.339-0.339l-2.882,2.878
			 M60.277,25.675h0.002l-2.895-2.896l-0.34,0.339l2.895,2.898 M59.921,17.278l-2.877,2.88l0.34,0.335l2.881-2.882"/>
	</g>
	<g id="oeil">
		<path d="M64.351,21.412c-1.928-3.33-4.698-6.124-8.01-8.078c-3.414-2.014-7.326-3.078-11.311-3.078s-7.897,1.064-11.311,3.078
			c-3.313,1.954-6.082,4.748-8.01,8.078l-0.139,0.241l0.139,0.237c1.928,3.332,4.701,6.121,8.013,8.079
			c3.352,1.981,7.185,3.036,11.088,3.076c0.073,0,0.148,0,0.217,0c0.073,0,0.148,0,0.218-0.002
			c3.909-0.037,7.741-1.099,11.093-3.076c3.313-1.954,6.082-4.748,8.01-8.079l0.139-0.239L64.351,21.412z M34.206,29.145
			c-1.492-0.88-2.869-1.938-4.101-3.145l2.881-2.881l-0.339-0.339l-2.882,2.878c-1.179-1.206-2.216-2.552-3.085-4.009
			c0.872-1.462,1.913-2.812,3.099-4.022l2.868,2.868l0.339-0.34l-2.867-2.867c1.229-1.201,2.601-2.253,4.087-3.13
			c1.426-0.841,2.942-1.509,4.516-1.995c-3.066,2.043-5.09,5.533-5.09,9.482c0,3.952,2.021,7.442,5.086,9.486
			C37.146,30.656,35.627,29.986,34.206,29.145L34.206,29.145L34.206,29.145z M45.029,32.09c-0.09,0-0.179-0.001-0.269-0.003
			c-5.631-0.144-10.168-4.769-10.168-10.434s4.537-10.291,10.168-10.435c0.09-0.002,0.179-0.003,0.269-0.003
			c0.09,0,0.177,0,0.266,0.003c5.631,0.148,10.172,4.77,10.172,10.435s-4.538,10.294-10.172,10.432
			C45.209,32.085,45.118,32.095,45.029,32.09z M60.279,25.675l-2.895-2.896l-0.34,0.339l2.895,2.898
			c-1.228,1.202-2.6,2.254-4.086,3.13c-1.425,0.84-2.94,1.508-4.513,1.994c3.064-2.044,5.087-5.534,5.087-9.486
			c0-3.953-2.023-7.444-5.09-9.487c1.574,0.483,3.095,1.153,4.514,1.995c1.48,0.877,2.848,1.922,4.071,3.116l-2.877,2.88l0.34,0.335
			l2.881-2.882c1.192,1.212,2.238,2.573,3.115,4.037c-0.873,1.467-1.91,2.817-3.103,4.026L60.279,25.675L60.279,25.675z"/>
	</g>
	<g id="pupille">
		<path fill="#010202" d="M48.82,21.652c0,2.094-1.698,3.791-3.791,3.791c-2.094,0-3.791-1.698-3.791-3.791
			c0-2.093,1.697-3.791,3.791-3.791c2.093,0,3.795,1.696,3.795,3.791H48.82z"/>
	</g>
</g>
</svg>
