<?xml version="1.0" encoding="utf-8"?>
<!-- Generator: Adobe Illustrator 17.0.0, SVG Export Plug-In . SVG Version: 6.00 Build 0)  -->
<!DOCTYPE svg PUBLIC "-//W3C//DTD SVG 1.1//EN" "http://www.w3.org/Graphics/SVG/1.1/DTD/svg11.dtd">
<svg version="1.1" id="Calque_1" xmlns="http://www.w3.org/2000/svg" xmlns:xlink="http://www.w3.org/1999/xlink" x="0px" y="0px"
	 width="200px" height="250px" viewBox="0 0 200 250" enable-background="new 0 0 200 250" xml:space="preserve">
<g>
	<g id="acid">
		<path id="D" fill="#010202" d="M170.582,249.67h-37.108v-56.606l39.53,39.53c3.278,3.26,7.424,8.149,5.523,12.721
			c-1.752,4.241-7.293,4.376-7.927,4.355H170.582z M140.33,242.815h28.636c1.676,0,2.725-1.849-0.804-5.378l-27.831-27.831V242.815z
			"/>
		<polygon id="I" fill="#010202" points="122.251,197.901 122.251,204.783 122.251,242.81 122.251,249.691 129.087,249.691 
			129.087,242.81 129.087,204.783 129.087,197.901 		"/>
		<path id="C" fill="#010202" d="M97.604,249.67c-14.272,0-25.887-11.609-25.887-25.878c0-14.272,11.615-25.885,25.887-25.885
			c7.414,0,14.487,3.214,19.421,8.767l-5.137,4.538c-3.621-4.102-8.823-6.45-14.275-6.45c-10.494,0-19.032,8.534-19.032,19.029
			c0,10.503,8.556,19.014,19.014,19.023c5.452,0,10.654-2.349,14.275-6.45l5.137,4.527c-4.913,5.586-12.004,8.8-19.383,8.778H97.604
			z"/>
		<path id="A" fill="#010202" d="M66.95,249.67H10.341l56.609-56.606V249.67z M26.882,242.815h33.213v-33.209L26.882,242.815z"/>
	</g>
	<g id="pointilles">
		
			<rect x="10.148" y="124.75" transform="matrix(0.7071 0.7071 -0.7071 0.7071 100.3756 32.2516)" fill="#010202" width="2.218" height="25.079"/>
		
			<rect x="61.953" y="74.911" transform="matrix(0.7071 0.7071 -0.7071 0.7071 78.9148 -19.5547)" fill="#010202" width="2.218" height="21.141"/>
		
			<rect x="85.768" y="51.104" transform="matrix(0.7071 0.7071 -0.7071 0.7071 69.0565 -43.3672)" fill="#010202" width="2.218" height="21.141"/>
		
			<rect x="113.728" y="21.167" transform="matrix(0.7071 0.7071 -0.7071 0.7071 57.4691 -71.3297)" fill="#010202" width="2.218" height="25.079"/>
		
			<rect x="137.541" y="-2.639" transform="matrix(0.7071 0.7071 -0.7071 0.7071 47.6103 -95.1409)" fill="#010202" width="2.218" height="25.079"/>
		
			<rect x="83.944" y="150.941" transform="matrix(0.7071 0.7071 -0.7071 0.7071 140.5098 -12.2589)" fill="#010202" width="2.218" height="25.079"/>
		
			<rect x="60.161" y="174.78" transform="matrix(0.7071 0.7071 -0.7071 0.7071 150.4008 11.5401)" fill="#010202" width="2.218" height="25.079"/>
		
			<rect x="111.967" y="124.941" transform="matrix(0.7071 0.7071 -0.7071 0.7071 128.9405 -40.2668)" fill="#010202" width="2.218" height="21.141"/>
		
			<rect x="135.782" y="101.134" transform="matrix(0.7071 0.7071 -0.7071 0.7071 119.0816 -64.0788)" fill="#010202" width="2.218" height="21.141"/>
		
			<rect x="187.555" y="47.389" transform="matrix(0.7071 0.7071 -0.7071 0.7071 97.6346 -115.853)" fill="#010202" width="2.218" height="25.079"/>
		
			<rect x="48.741" y="8.766" transform="matrix(0.7071 0.7071 -0.7071 0.7071 24.9317 -40.4397)" fill="#010202" width="25.079" height="2.218"/>
		
			<rect x="72.548" y="32.581" transform="matrix(0.7071 0.7071 -0.7071 0.7071 48.7441 -50.2983)" fill="#010202" width="25.079" height="2.218"/>
		
			<rect x="102.491" y="60.601" transform="matrix(0.7071 0.7071 -0.7071 0.7071 76.7509 -61.8721)" fill="#010202" width="21.141" height="2.218"/>
		
			<rect x="176.116" y="136.161" transform="matrix(0.707 0.7072 -0.7072 0.707 152.3537 -93.1995)" fill="#010202" width="25.079" height="2.218"/>
		
			<rect x="-1.288" y="58.778" transform="matrix(0.7071 0.7071 -0.7071 0.7071 45.642 9.5846)" fill="#010202" width="25.079" height="2.218"/>
		
			<rect x="52.492" y="110.583" transform="matrix(0.7071 0.7071 -0.7071 0.7071 97.4492 -11.8781)" fill="#010202" width="21.141" height="2.218"/>
		
			<rect x="76.29" y="134.398" transform="matrix(0.7071 0.7071 -0.7071 0.7071 121.2585 -21.7306)" fill="#010202" width="21.141" height="2.218"/>
		
			<rect x="102.309" y="162.358" transform="matrix(0.7072 0.707 -0.707 0.7072 149.1991 -33.3369)" fill="#010202" width="25.079" height="2.218"/>
		
			<rect x="126.108" y="186.173" transform="matrix(0.7072 0.707 -0.707 0.7072 173.0047 -43.1896)" fill="#010202" width="25.079" height="2.218"/>
		
			<rect x="126.299" y="84.352" transform="matrix(0.7071 0.7071 -0.7071 0.7071 100.5185 -71.7503)" fill="#010202" width="21.141" height="2.218"/>
		<path d="M29.975,80.156L43.149,93.33l1.557-1.562L31.537,78.599 M31.474,118.614l13.233-13.233l-1.557-1.557l-13.237,13.219
			 M170.057,117.124h0.009l-13.296-13.301l-1.562,1.557l13.296,13.31 M168.423,78.558l-13.214,13.228l1.562,1.539l13.232-13.237"/>
	</g>
	<g id="oeil">
		<path d="M188.768,97.545c-8.855-15.297-21.576-28.127-36.792-37.104c-15.682-9.249-33.65-14.138-51.953-14.138
			c-18.303,0-36.271,4.889-51.953,14.138c-15.216,8.977-27.937,21.807-36.792,37.104l-0.638,1.105l0.638,1.087
			c8.855,15.302,21.594,28.113,36.805,37.109c15.397,9.099,33.003,13.943,50.93,14.129c0.335,0,0.679,0,0.996,0
			c0.335,0,0.679,0,1-0.01c17.954-0.172,35.556-5.047,50.953-14.129c15.215-8.977,27.937-21.807,36.792-37.109l0.638-1.1
			L188.768,97.545z M50.311,133.06c-6.854-4.043-13.178-8.9-18.837-14.446l13.233-13.233l-1.557-1.557l-13.237,13.219
			c-5.414-5.541-10.177-11.721-14.17-18.412c4.006-6.714,8.787-12.916,14.233-18.475L43.149,93.33l1.557-1.562L31.537,78.599
			c5.645-5.514,11.947-10.349,18.774-14.378c6.551-3.862,13.513-6.931,20.743-9.163C56.97,64.443,47.676,80.473,47.676,98.609
			c0,18.154,9.281,34.18,23.36,43.569c-7.221-2.178-14.201-5.256-20.721-9.118L50.311,133.06L50.311,133.06z M100.023,146.587
			c-0.412,0-0.824-0.005-1.235-0.014c-25.863-0.661-46.702-21.902-46.702-47.923s20.838-47.267,46.702-47.928
			c0.412-0.009,0.824-0.014,1.235-0.014c0.412,0,0.815,0,1.222,0.014c25.863,0.679,46.72,21.911,46.72,47.928
			s-20.843,47.281-46.72,47.914C100.847,146.564,100.431,146.609,100.023,146.587z M170.066,117.124l-13.296-13.301l-1.562,1.557
			l13.296,13.31c-5.641,5.519-11.942,10.353-18.769,14.378c-6.546,3.858-13.504,6.926-20.73,9.158
			c14.075-9.389,23.364-25.416,23.364-43.569c0-18.158-9.294-34.189-23.378-43.573c7.23,2.218,14.215,5.297,20.734,9.163
			c6.8,4.029,13.083,8.828,18.697,14.31l-13.214,13.228l1.562,1.539l13.232-13.237c5.473,5.568,10.277,11.816,14.306,18.543
			c-4.011,6.736-8.773,12.938-14.251,18.493H170.066z"/>
	</g>
	<g id="pupille">
		<path fill="#010202" d="M117.433,98.647c0,9.617-7.797,17.413-17.41,17.413c-9.617,0-17.411-7.797-17.411-17.413
			c0-9.614,7.793-17.41,17.411-17.41c9.613,0.001,17.429,7.788,17.429,17.41H117.433z"/>
	</g>
</g>
</svg>
